# This file uses centimeters as units for non-parametric coordinates.

g default
v 0.069748 0.000000 -0.069748
v 0.000000 0.000000 -0.098638
v -0.069748 0.000000 -0.069748
v -0.098638 0.000000 0.000000
v -0.069748 0.000000 0.069748
v 0.000000 0.000000 0.098638
v 0.069748 0.000000 0.069748
v 0.098638 0.000000 0.000000
v 0.000000 0.134465 0.000000
v 0.000000 0.116367 -0.005145
v -0.005145 0.116367 0.000000
v 0.000000 0.116367 0.005145
v 0.005145 0.116367 0.000000
v 0.000000 0.178084 -0.005145
v 0.005145 0.178084 0.000000
v 0.000000 0.178084 0.005145
v -0.005145 0.178084 0.000000
v 0.069748 0.125353 -0.069748
v 0.062774 0.134465 -0.062773
v 0.000000 0.125353 -0.098638
v 0.000000 0.134465 -0.088775
v -0.069748 0.125353 -0.069748
v -0.062773 0.134465 -0.062773
v -0.098638 0.125353 0.000000
v -0.088775 0.134465 0.000000
v -0.069748 0.125353 0.069748
v -0.062773 0.134465 0.062774
v 0.000000 0.125353 0.098638
v 0.000000 0.134465 0.088775
v 0.069748 0.125353 0.069748
v 0.062774 0.134465 0.062774
v 0.098638 0.125353 0.000000
v 0.088775 0.134465 0.000000
vt 0.399585 0.013954
vt 0.297797 0.013954
vt 0.285796 0.037956
vt 0.399585 0.049956
vt 0.297797 0.025955
vt 0.399585 0.025955
vt 0.297797 0.037956
vt 0.399585 0.037956
vt 0.001953 0.293748
vt 0.008178 0.272494
vt 0.120240 0.272494
vt 0.991822 0.272494
vt 0.879760 0.272494
vt 0.867310 0.272494
vt 0.755248 0.272494
vt 0.742798 0.272494
vt 0.630737 0.272494
vt 0.618287 0.272494
vt 0.506225 0.272494
vt 0.493775 0.272494
vt 0.381713 0.272494
vt 0.369263 0.272494
vt 0.257201 0.272494
vt 0.244752 0.272494
vt 0.132690 0.272494
vt 0.998047 0.500490
vt 0.873535 0.500490
vt 0.998047 0.293748
vt 0.749023 0.500490
vt 0.873535 0.293747
vt 0.624512 0.500490
vt 0.749023 0.293748
vt 0.500000 0.500490
vt 0.624512 0.293748
vt 0.375488 0.500490
vt 0.500000 0.293748
vt 0.250977 0.500490
vt 0.375488 0.293748
vt 0.126465 0.500490
vt 0.250977 0.293748
vt 0.001953 0.500490
vt 0.126465 0.293748
vt 0.053450 0.081193
vt 0.132690 0.001953
vt 0.244752 0.001953
vt 0.323991 0.081193
vt 0.323991 0.193255
vt 0.053450 0.193255
vt 0.188721 0.137224
vt 0.285796 0.025955
vt 0.297797 0.001953
vt 0.297797 0.049956
vt 0.399586 0.001953
vn -0.000000 0.000000 -1.000000
vn -0.000000 0.000000 -1.000000
vn 1.000000 0.000000 0.000000
vn 1.000000 0.000000 0.000000
vn -1.000000 0.000000 -0.000000
vn -1.000000 0.000000 -0.000000
vn 0.000000 0.000000 1.000000
vn 0.000000 0.000000 1.000000
vn 0.000000 1.000000 0.000000
vn 0.000000 1.000000 0.000000
vn 0.000000 1.000000 0.000000
vn 0.000000 1.000000 0.000000
vn 0.479840 0.734512 -0.479840
vn 0.479840 0.734512 -0.479840
vn 0.678595 0.734512 0.000000
vn 0.678595 0.734512 0.000000
vn 0.000000 0.734511 -0.678597
vn 0.000000 0.734511 -0.678597
vn -0.479840 0.734511 -0.479840
vn -0.479840 0.734511 -0.479840
vn -0.678595 0.734512 0.000000
vn -0.678595 0.734512 0.000000
vn -0.479840 0.734511 0.479840
vn -0.479840 0.734511 0.479841
vn 0.000000 0.734511 0.678597
vn -0.000000 0.734511 0.678597
vn 0.479840 0.734511 0.479840
vn 0.479840 0.734511 0.479841
vn 0.707107 0.000000 -0.707107
vn -0.000000 0.000000 -1.000000
vn -0.000000 0.000000 -1.000000
vn 0.707107 0.000000 -0.707107
vn -0.707107 0.000000 -0.707107
vn -0.707107 0.000000 -0.707107
vn -1.000000 0.000000 0.000000
vn -1.000000 0.000000 0.000000
vn -0.707107 0.000000 0.707107
vn -0.707107 0.000000 0.707107
vn -0.000000 0.000000 1.000000
vn -0.000000 0.000000 1.000000
vn 0.707107 0.000000 0.707107
vn 0.707107 0.000000 0.707107
vn 1.000000 0.000000 0.000000
vn 1.000000 0.000000 0.000000
vn 0.000000 1.000000 0.000000
vn 0.000000 1.000000 0.000000
vn 0.000000 1.000000 -0.000000
vn 0.000000 1.000000 0.000000
vn 0.000000 1.000000 0.000000
vn 0.000000 1.000000 0.000000
vn 0.000000 1.000000 -0.000000
vn 0.000000 1.000000 -0.000000
vn 0.000000 1.000000 0.000000
g Candle2
f 10/1/1 14/2/2 15/51/3 13/53/4
f 17/5/5 14/2/2 10/1/1 11/6/6
f 16/7/7 17/5/5 11/6/6 12/8/8
f 15/52/3 16/7/7 12/8/8 13/4/4
f 14/50/9 17/5/10 16/7/11 15/3/12
f 18/9/13 19/10/14 33/11/15 32/42/16
f 19/12/14 18/28/13 20/30/17 21/13/18
f 21/14/18 20/30/17 22/32/19 23/15/20
f 23/16/20 22/32/19 24/34/21 25/17/22
f 25/18/22 24/34/21 26/36/23 27/19/24
f 27/20/24 26/36/23 28/38/25 29/21/26
f 29/22/26 28/38/25 30/40/27 31/23/28
f 31/24/28 30/40/27 32/42/16 33/25/15
f 1/26/29 2/27/30 20/30/31 18/28/32
f 2/27/30 3/29/33 22/32/34 20/30/31
f 3/29/33 4/31/35 24/34/36 22/32/34
f 4/31/35 5/33/37 26/36/38 24/34/36
f 5/33/37 6/35/39 28/38/40 26/36/38
f 6/35/39 7/37/41 30/40/42 28/38/40
f 7/37/41 8/39/43 32/42/44 30/40/42
f 8/39/43 1/41/29 18/9/32 32/42/44
f 19/48/45 21/43/46 9/49/47
f 21/43/46 23/44/48 9/49/47
f 23/44/48 25/45/49 9/49/47
f 25/45/49 27/46/50 9/49/47
f 27/46/50 29/47/51 9/49/47
f 29/47/51 31/24/52 9/49/47
f 31/24/52 33/25/53 9/49/47
f 33/25/53 19/48/45 9/49/47
