# This file uses centimeters as units for non-parametric coordinates.

g default
v -0.193293 0.000000 0.096656
v -0.096656 0.000000 0.193293
v -0.125226 0.317389 0.250427
v -0.250427 0.317389 0.125226
v 0.193293 0.000000 0.096656
v 0.096656 0.000000 0.193293
v 0.125226 0.317389 0.250427
v 0.250427 0.317389 0.125226
v -0.205468 0.673452 -0.102744
v -0.102744 0.673452 -0.205468
v -0.125226 0.521897 -0.250427
v -0.250427 0.521897 -0.125226
v 0.102744 0.673452 -0.205468
v 0.205468 0.673452 -0.102744
v 0.125226 0.521897 -0.250427
v 0.250427 0.521897 -0.125226
v -0.125226 0.521897 0.250427
v -0.250427 0.521897 0.125226
v 0.250427 0.521897 0.125226
v 0.125226 0.521897 0.250427
v 0.193293 0.000000 -0.096656
v 0.096656 0.000000 -0.193293
v 0.250427 0.317389 -0.125226
v 0.125226 0.317389 -0.250427
v -0.096656 0.000000 -0.193293
v -0.193293 0.000000 -0.096656
v -0.125226 0.317389 -0.250427
v -0.250427 0.317389 -0.125226
v 0.205468 0.673452 0.102744
v 0.102744 0.673452 0.205468
v -0.102744 0.673452 0.205468
v -0.205468 0.673452 0.102744
v -0.109269 0.816708 0.218516
v -0.218516 0.816708 0.109269
v 0.109269 0.816708 0.218516
v 0.218516 0.816708 0.109269
v 0.218516 0.816708 -0.109269
v 0.109269 0.816708 -0.218516
v -0.109269 0.816708 -0.218516
v -0.218516 0.816708 -0.109269
v -0.182415 0.816708 -0.091217
v 0.182415 0.816708 0.091217
v -0.091217 0.816708 0.182415
v 0.091217 0.816708 -0.182415
v -0.091217 0.816708 -0.182415
v 0.091217 0.816708 0.182415
v -0.182415 0.816708 0.091217
v 0.182415 0.816708 -0.091217
v -0.102033 0.523597 0.051021
v -0.051021 0.523597 0.102033
v 0.051021 0.523597 0.102033
v 0.102033 0.523597 0.051021
v 0.102033 0.523597 -0.051021
v 0.051021 0.523597 -0.102033
v -0.051021 0.523597 -0.102033
v -0.102033 0.523597 -0.051021
v -0.193293 0.000000 0.000000
v -0.250427 0.317389 0.000000
v -0.250427 0.521897 0.000000
v -0.205468 0.673452 0.000000
v -0.218516 0.723735 0.000000
v -0.182415 0.723735 0.000000
v -0.102033 0.523597 -0.000000
v 0.193293 0.000000 0.000000
v 0.250427 0.317389 0.000000
v 0.250427 0.521897 0.000000
v 0.205468 0.673452 0.000000
v 0.218516 0.723735 0.000000
v 0.182415 0.723735 0.000000
v 0.102033 0.523597 -0.000000
v 0.000000 0.000000 0.193293
v 0.000000 0.317389 0.250427
v 0.000000 0.521897 0.250427
v 0.000000 0.673452 0.205468
v 0.000000 0.723735 0.218516
v 0.000000 0.723735 0.182415
v 0.000000 0.523597 0.102033
v 0.000000 0.523597 -0.102033
v 0.000000 0.723735 -0.182415
v 0.000000 0.723735 -0.218516
v 0.000000 0.673452 -0.205468
v 0.000000 0.521897 -0.250427
v 0.000000 0.317389 -0.250427
v 0.000000 0.000000 -0.193293
v 0.000000 0.000000 0.000000
v 0.000000 0.000000 -0.096656
v 0.000000 0.000000 0.096656
v 0.051021 0.523597 0.000000
v 0.000000 0.523597 0.000000
v -0.051021 0.523597 0.000000
vt 0.281899 0.106254
vt 0.351552 0.106504
vt 0.351426 0.141303
vt 0.316522 0.141187
vt 0.421434 0.037138
vt 0.669279 0.201272
vt 0.616014 0.304888
vt 0.553847 0.284617
vt 0.591554 0.374378
vt 0.534731 0.354167
vt 0.034398 0.201066
vt 0.282178 0.036631
vt 0.148249 0.284383
vt 0.086507 0.305297
vt 0.167619 0.354830
vt 0.110190 0.373786
vt 0.443544 0.392689
vt 0.769528 0.542491
vt 0.393351 0.330032
vt 0.452305 0.336696
vt 0.397421 0.257818
vt 0.462976 0.264171
vt 0.312633 0.387151
vt 0.818213 0.426191
vt 0.249827 0.336221
vt 0.308955 0.330770
vt 0.239228 0.264859
vt 0.304607 0.257359
vt 0.933111 0.262991
vt 0.969912 0.225883
vt 0.855553 0.362391
vt 0.885639 0.319658
vt 0.416627 0.142799
vt 0.421205 0.106760
vt 0.043993 0.322096
vt 0.070749 0.392897
vt 0.351136 0.330629
vt 0.351043 0.257348
vt 0.193336 0.273069
vt 0.208988 0.346127
vt 0.508813 0.272843
vt 0.493311 0.345982
vt 0.351933 0.002080
vt 0.282043 0.071442
vt 0.421314 0.071949
vt 0.350978 0.387705
vt 0.836883 0.394291
vt 0.909375 0.291324
vt 0.998047 0.201912
vt 0.895180 0.227710
vt 0.934317 0.188246
vt 0.843939 0.233902
vt 0.744678 0.213902
vt 0.792895 0.241548
vt 0.725491 0.165988
vt 0.748252 0.452531
vt 0.704950 0.118639
vt 0.801045 0.001990
vt 0.765129 0.501307
vt 0.704950 0.580146
vt 0.940083 0.136956
vt 0.288746 0.589023
vt 0.263682 0.582290
vt 0.295482 0.563957
vt 0.304647 0.579855
vt 0.501574 0.457217
vt 0.465642 0.427862
vt 0.497240 0.503873
vt 0.183439 0.439094
vt 0.543255 0.512713
vt 0.229228 0.449037
vt 0.288141 0.391545
vt 0.243568 0.404429
vt 0.357492 0.388785
vt 0.768507 0.044333
vt 0.402948 0.398085
vt 0.420788 0.441412
vt 0.254514 0.566389
vt 0.252080 0.525423
vt 0.245347 0.550487
vt 0.267981 0.516256
vt 0.308946 0.513821
vt 0.283882 0.507088
vt 0.327281 0.545624
vt 0.318114 0.529722
vt 0.370921 0.503624
vt 0.351806 0.036883
vt 0.351679 0.071694
vt 0.277147 0.532154
vt 0.286314 0.548055
vt 0.324069 0.421624
vt 0.805645 0.015762
vt 0.327155 0.499152
vt 0.345495 0.498422
vt 0.842198 0.221032
vt 0.435201 0.550469
vt 0.446224 0.565145
vt 0.795765 0.227314
vt 0.737478 0.160989
vt 0.719442 0.117743
vt 0.387500 0.511498
vt 0.404080 0.519373
vt 0.927199 0.135322
vt 0.921303 0.181806
vt 0.320549 0.570688
vt 0.308814 0.499882
vt 0.456392 0.589023
vt 0.755513 0.204236
vt 0.561434 0.555401
vt 0.424178 0.535793
vt 0.852043 0.015732
vt 0.731369 0.072904
vt 0.888631 0.214750
vt 0.782607 0.507920
vt 0.795687 0.473350
vt 0.760588 0.034040
vt 0.719237 0.064926
vt 0.895049 0.279323
vt 0.844258 0.288495
vt 0.099272 0.444185
vt 0.132460 0.427109
vt 0.820754 0.384852
vt 0.772208 0.402378
vt 0.221125 0.401703
vt 0.258620 0.393592
vt 0.985927 0.187687
vt 0.729736 0.625418
vt 0.897124 0.033949
vt 0.889219 0.044253
vt 0.480709 0.401417
vt 0.748074 0.629018
vt 0.856625 0.001953
vt 0.755196 0.592749
vt 0.720192 0.526696
vt 0.812261 0.333942
vt 0.569269 0.426441
vt 0.518099 0.409490
vt 0.183594 0.409150
vt 0.389455 0.387772
vt 0.701583 0.214308
vt 0.317117 0.001953
vt 0.164677 0.160541
vt 0.104005 0.176618
vt 0.529284 0.158426
vt 0.572022 0.169254
vt 0.465814 0.147489
vt 0.207991 0.152478
vt 0.386748 0.002207
vt 0.630944 0.393587
vt 0.601950 0.444185
vt 0.658359 0.322217
vt 0.001953 0.213743
vt 0.173660 0.158572
vt 0.538255 0.160576
vt 0.386329 0.141436
vt 0.494996 0.152088
vt 0.234565 0.148170
vt 0.283667 0.142712
vt 0.057195 0.192243
vt 0.130852 0.168981
vt 0.597191 0.176414
vt 0.644166 0.191596
vn 0.000000 -1.000000 0.000000
vn 0.000000 -1.000000 0.000000
vn 0.000000 -1.000000 0.000000
vn 0.000000 -1.000000 0.000000
vn -0.878241 -0.197309 0.435617
vn -0.435618 -0.197309 0.878241
vn -0.446036 -0.113446 0.887796
vn -0.887796 -0.113446 0.446036
vn -0.445535 0.126491 0.886284
vn -0.886284 0.126491 0.445535
vn 0.435618 -0.197309 0.878241
vn 0.878241 -0.197309 0.435617
vn 0.887796 -0.113446 0.446036
vn 0.446036 -0.113446 0.887796
vn 0.886284 0.126491 0.445534
vn 0.445535 0.126491 0.886284
vn -0.851049 0.314804 -0.420253
vn -0.420254 0.314804 -0.851049
vn -0.445535 0.126491 -0.886284
vn -0.886284 0.126491 -0.445534
vn -0.446036 -0.113446 -0.887796
vn -0.887796 -0.113446 -0.446036
vn 0.420254 0.314804 -0.851049
vn 0.851050 0.314804 -0.420253
vn 0.886284 0.126491 -0.445535
vn 0.445535 0.126491 -0.886284
vn 0.887796 -0.113446 -0.446036
vn 0.446036 -0.113446 -0.887796
vn -0.420254 0.314804 0.851049
vn -0.851050 0.314804 0.420253
vn 0.851049 0.314804 0.420253
vn 0.420254 0.314804 0.851049
vn 0.878241 -0.197309 -0.435617
vn 0.435618 -0.197309 -0.878241
vn -0.435618 -0.197309 -0.878241
vn -0.878241 -0.197309 -0.435617
vn 0.000000 -0.103655 0.994613
vn 0.000000 0.118654 0.992936
vn 0.000000 0.118654 -0.992936
vn 0.000000 -0.103655 -0.994613
vn 0.994613 -0.103655 0.000000
vn 0.992936 0.118654 0.000000
vn -0.994613 -0.103655 0.000000
vn -0.992936 0.118654 0.000000
vn 0.000000 -0.177167 0.984181
vn 0.984181 -0.177167 0.000000
vn 0.000000 -0.177167 -0.984181
vn -0.984181 -0.177167 0.000000
vn 0.000000 0.284400 -0.958706
vn 0.958706 0.284400 0.000000
vn 0.000000 0.284400 0.958706
vn -0.958706 0.284400 0.000000
vn -0.843295 -0.115289 0.524940
vn -0.524940 -0.115289 0.843295
vn -0.597960 -0.108544 0.794142
vn -0.794142 -0.108544 0.597960
vn 0.000000 -0.135588 0.990765
vn 0.000000 -0.135588 0.990765
vn 0.524941 -0.115289 0.843295
vn 0.843295 -0.115290 0.524940
vn 0.794142 -0.108544 0.597960
vn 0.597960 -0.108544 0.794142
vn 0.990765 -0.135588 -0.000000
vn 0.990765 -0.135588 -0.000000
vn 0.843295 -0.115289 -0.524940
vn 0.524940 -0.115289 -0.843295
vn 0.597960 -0.108544 -0.794142
vn 0.794142 -0.108544 -0.597960
vn 0.000000 -0.135588 -0.990765
vn -0.524941 -0.115289 -0.843295
vn -0.597960 -0.108544 -0.794142
vn 0.000000 -0.135588 -0.990765
vn -0.843295 -0.115290 -0.524940
vn -0.794142 -0.108544 -0.597960
vn -0.990765 -0.135588 0.000000
vn -0.990765 -0.135588 0.000000
vn 0.000000 1.000000 0.000000
vn 0.000000 1.000000 0.000000
vn 0.000000 1.000000 0.000000
vn 0.000000 1.000000 0.000000
vn -0.085697 0.935509 -0.342752
vn 0.342752 0.935509 0.085697
vn 0.346251 0.934139 0.086572
vn -0.086571 0.934139 -0.346250
vn 0.000000 0.974150 0.225901
vn 0.000000 0.974150 0.225901
vn 0.086572 0.934139 -0.346250
vn -0.346251 0.934139 0.086572
vn -0.342752 0.935509 0.085698
vn 0.085697 0.935509 -0.342752
vn 0.225900 0.974150 0.000000
vn 0.225900 0.974150 0.000000
vn -0.342752 0.935509 -0.085698
vn -0.346251 0.934139 -0.086573
vn 0.086572 0.934139 0.346250
vn 0.085697 0.935509 0.342752
vn 0.342752 0.935509 -0.085697
vn 0.346251 0.934139 -0.086572
vn 0.000000 0.974150 -0.225902
vn 0.000000 0.974150 -0.225902
vn -0.085697 0.935509 0.342752
vn -0.086571 0.934139 0.346251
vn -0.225900 0.974150 0.000000
vn -0.225900 0.974150 0.000000
vn 0.749475 0.294746 -0.592801
vn 0.592800 0.294746 -0.749475
vn 0.520250 0.304222 -0.797991
vn 0.797991 0.304222 -0.520250
vn -0.000000 0.325518 -0.945536
vn -0.000000 0.325518 -0.945536
vn -0.592800 0.294746 -0.749475
vn -0.749475 0.294746 -0.592800
vn -0.797991 0.304222 -0.520250
vn -0.520250 0.304222 -0.797991
vn -0.945536 0.325518 0.000000
vn -0.945536 0.325518 0.000000
vn -0.749475 0.294746 0.592801
vn -0.592800 0.294746 0.749475
vn -0.520250 0.304222 0.797991
vn -0.797991 0.304222 0.520250
vn 0.000000 0.325518 0.945536
vn 0.592800 0.294746 0.749475
vn 0.520250 0.304222 0.797991
vn 0.000000 0.325518 0.945536
vn 0.749475 0.294746 0.592800
vn 0.797991 0.304222 0.520250
vn 0.945536 0.325518 0.000000
vn 0.945536 0.325518 0.000000
vn 0.000000 -1.000000 0.000000
vn 0.000000 -1.000000 0.000000
vn 0.000000 -1.000000 0.000000
vn 0.000000 -1.000000 0.000000
vn 0.000000 -1.000000 0.000000
vn 0.000000 -1.000000 0.000000
vn 0.000000 -1.000000 0.000000
vn 0.000000 -1.000000 0.000000
vn 0.000000 -1.000000 0.000000
vn 0.000000 -1.000000 0.000000
vn 0.000000 -1.000000 0.000000
vn 0.000000 1.000000 0.000000
vn 0.000000 1.000000 0.000000
vn 0.000000 1.000000 0.000000
vn 0.000000 1.000000 0.000000
vn 0.000000 1.000000 0.000000
vn 0.000000 1.000000 0.000000
vn 0.000000 1.000000 0.000000
vn 0.000000 1.000000 0.000000
vn 0.000000 1.000000 0.000000
vn 0.000000 1.000000 0.000000
vn 0.000000 1.000000 0.000000
g Vase2
f 21/1/1 86/2/2 84/3/3 22/4/4
f 1/161/5 2/162/6 3/7/7 4/8/8
f 4/8/8 3/7/7 17/9/9 18/10/10
f 6/159/11 5/143/12 8/13/13 7/14/14
f 7/14/14 8/13/13 19/15/15 20/16/16
f 9/17/17 10/139/18 11/19/19 12/20/20
f 12/20/20 11/19/19 27/21/21 28/22/22
f 13/23/23 14/125/24 16/25/25 15/26/26
f 15/26/26 16/25/25 23/27/27 24/28/28
f 18/10/10 17/9/9 31/136/29 32/137/30
f 20/16/16 19/15/15 29/138/31 30/121/32
f 21/157/33 22/158/34 24/28/28 23/27/27
f 25/33/35 26/146/36 28/22/22 27/21/21
f 3/7/7 72/151/37 73/149/38 17/9/9
f 11/19/19 82/37/39 83/38/40 27/21/21
f 8/13/13 65/39/41 66/40/42 19/15/15
f 28/22/22 58/41/43 59/42/44 12/20/20
f 3/7/7 2/6/6 71/140/45 72/151/37
f 8/13/13 5/160/12 64/142/46 65/39/41
f 27/21/21 83/38/40 84/3/47 25/155/35
f 28/22/22 26/156/36 57/144/48 58/41/43
f 11/19/19 10/139/18 81/46/49 82/37/39
f 19/15/15 66/40/42 67/124/50 29/138/31
f 17/9/9 73/149/38 74/150/51 31/136/29
f 12/20/20 59/42/44 60/130/52 9/17/17
f 32/30/53 31/29/54 33/50/55 34/51/56
f 31/29/54 74/48/57 75/118/58 33/50/55
f 30/32/59 29/31/60 36/135/61 35/119/62
f 29/31/60 67/47/63 68/122/64 36/135/61
f 14/24/65 13/115/66 38/56/67 37/123/68
f 81/114/69 10/18/70 39/134/71 80/59/72
f 10/18/70 9/133/73 40/60/74 39/134/71
f 9/133/73 60/131/75 61/127/76 40/60/74
f 49/62/77 50/63/78 90/64/79 63/65/80
f 34/51/81 33/50/82 43/113/83 47/104/84
f 76/95/85 43/113/83 33/50/82 75/52/86
f 42/108/87 46/98/88 35/54/89 36/53/90
f 68/55/91 69/99/92 42/108/87 36/53/90
f 38/117/93 44/112/94 48/100/95 37/57/96
f 39/58/97 45/92/98 79/75/99 80/116/100
f 40/132/101 41/111/102 45/92/98 39/58/97
f 61/128/103 62/129/104 41/111/102 40/132/101
f 47/67/105 43/66/106 50/110/107 49/102/108
f 43/66/106 76/68/109 77/96/110 50/110/107
f 46/70/111 42/109/112 52/107/113 51/97/114
f 42/69/112 69/71/115 70/81/116 52/79/113
f 48/73/117 44/72/118 54/106/119 53/83/120
f 79/91/121 45/74/122 55/94/123 78/93/124
f 45/74/122 41/76/125 56/86/126 55/94/123
f 41/76/125 62/77/127 63/101/128 56/86/126
f 58/41/43 57/154/48 1/145/5 4/8/8
f 59/42/44 58/41/43 4/8/8 18/10/10
f 60/130/52 59/42/44 18/10/10 32/137/30
f 61/126/76 60/49/75 32/30/53 34/51/56
f 34/51/81 47/104/84 62/103/104 61/61/103
f 63/101/128 62/77/127 47/67/105 49/102/108
f 65/39/41 64/153/46 21/147/33 23/27/27
f 66/40/42 65/39/41 23/27/27 16/25/25
f 67/124/50 66/40/42 16/25/25 14/125/24
f 68/122/64 67/47/63 14/24/65 37/123/68
f 37/57/96 48/100/95 69/99/92 68/55/91
f 70/81/116 69/71/115 48/73/117 53/83/120
f 72/35/37 71/152/45 6/11/11 7/14/14
f 73/36/38 72/35/37 7/14/14 20/16/16
f 74/120/51 73/36/38 20/16/16 30/121/32
f 75/118/58 74/48/57 30/32/59 35/119/62
f 46/98/88 76/95/85 75/52/86 35/54/89
f 77/96/110 76/68/109 46/70/111 51/97/114
f 44/72/118 79/91/121 78/93/124 54/106/119
f 80/116/100 79/75/99 44/112/94 38/117/93
f 13/115/66 81/114/69 80/59/72 38/56/67
f 82/37/39 81/46/49 13/23/23 15/26/26
f 83/38/40 82/37/39 15/26/26 24/28/28
f 84/3/47 83/38/40 24/28/28 22/4/34
f 5/12/129 87/87/130 85/88/131 64/44/132
f 57/45/133 85/88/131 87/87/130 1/5/134
f 26/34/135 25/155/136 84/3/3 86/2/2
f 85/88/131 86/2/2 21/1/1 64/44/132
f 26/34/135 86/2/2 85/88/131 57/45/133
f 71/43/137 87/87/130 5/12/129 6/141/138
f 1/5/134 87/87/130 71/43/137 2/148/139
f 70/81/140 88/89/141 51/80/142 52/79/143
f 88/89/141 89/90/144 77/78/145 51/80/142
f 89/90/144 90/64/79 50/63/78 77/78/145
f 54/82/146 88/89/141 70/81/140 53/83/147
f 78/85/148 89/90/144 88/89/141 54/82/146
f 55/84/149 90/64/79 89/90/144 78/85/148
f 63/65/80 90/64/79 55/84/149 56/105/150
